<svg width="148" height="135" viewBox="0 0 148 135" fill="none" xmlns="http://www.w3.org/2000/svg">
<path fill-rule="evenodd" clip-rule="evenodd" d="M3.55456e-08 6.70833C3.55456e-08 4.92917 0.706768 3.22288 1.96482 1.96483C3.22288 0.706769 4.92917 0 6.70833 0H80.5C82.2792 0 83.9854 0.706769 85.2435 1.96483C86.5016 3.22288 87.2083 4.92917 87.2083 6.70833V40.25H114.042C118.446 40.25 122.808 41.1176 126.878 42.8032C130.947 44.4888 134.645 46.9595 137.759 50.0741C140.874 53.1888 143.344 56.8864 145.03 60.9558C146.716 65.0253 147.583 69.3869 147.583 73.7917V100.625C147.584 104.943 146.196 109.148 143.624 112.617C141.053 116.086 137.433 118.637 133.301 119.891C132.071 123.95 129.59 127.516 126.212 130.081C122.835 132.645 118.733 134.078 114.494 134.173C110.254 134.268 106.092 133.021 102.603 130.611C99.1136 128.2 96.4751 124.749 95.0638 120.75H52.5262C51.115 124.749 48.4764 128.2 44.9871 130.611C41.4979 133.021 37.3363 134.268 33.0964 134.173C28.8566 134.078 24.7552 132.645 21.3776 130.081C18.0001 127.516 15.5191 123.95 14.2888 119.891C10.1553 118.638 6.53472 116.088 3.96171 112.619C1.3887 109.149 -0.000256558 104.944 3.55456e-08 100.625V73.7917H40.25C42.0292 73.7917 43.7354 73.0849 44.9935 71.8268C46.2516 70.5688 46.9583 68.8625 46.9583 67.0833C46.9583 65.3042 46.2516 63.5979 44.9935 62.3398C43.7354 61.0818 42.0292 60.375 40.25 60.375H3.55456e-08V46.9583H26.8333C28.6125 46.9583 30.3188 46.2516 31.5768 44.9935C32.8349 43.7355 33.5417 42.0292 33.5417 40.25C33.5417 38.4708 32.8349 36.7646 31.5768 35.5065C30.3188 34.2484 28.6125 33.5417 26.8333 33.5417H3.55456e-08V6.70833ZM87.2083 107.333H95.0638C96.39 103.58 98.7997 100.304 101.988 97.9197C105.176 95.5358 109 94.151 112.976 93.9406C116.951 93.7302 120.9 94.7036 124.322 96.7377C127.744 98.7717 130.486 101.775 132.201 105.368C132.825 104.746 133.32 104.006 133.657 103.192C133.994 102.379 134.168 101.506 134.167 100.625V73.7917C134.167 68.4542 132.046 63.3353 128.272 59.5611C124.498 55.787 119.379 53.6667 114.042 53.6667H87.2083V107.333ZM40.25 114.042C40.25 112.263 39.5432 110.556 38.2852 109.298C37.0271 108.04 35.3208 107.333 33.5417 107.333C31.7625 107.333 30.0562 108.04 28.7982 109.298C27.5401 110.556 26.8333 112.263 26.8333 114.042C26.8333 115.821 27.5401 117.527 28.7982 118.785C30.0562 120.043 31.7625 120.75 33.5417 120.75C35.3208 120.75 37.0271 120.043 38.2852 118.785C39.5432 117.527 40.25 115.821 40.25 114.042ZM109.299 109.299C108.674 109.92 108.179 110.659 107.841 111.474C107.504 112.288 107.331 113.16 107.333 114.042C107.333 115.594 107.871 117.098 108.855 118.298C109.84 119.498 111.209 120.319 112.732 120.622C114.254 120.925 115.834 120.691 117.203 119.96C118.572 119.229 119.645 118.045 120.239 116.611C120.833 115.178 120.912 113.582 120.461 112.097C120.011 110.612 119.06 109.328 117.77 108.466C116.479 107.603 114.93 107.215 113.385 107.367C111.841 107.519 110.396 108.202 109.299 109.299Z" fill="white"/>
</svg>
