<svg width="157" height="169" viewBox="0 0 157 169" fill="none" xmlns="http://www.w3.org/2000/svg">
<path d="M78.5714 120.918V132.966M78.5714 61.1557V72.3686M78.5714 162.31C120.321 162.31 150.143 147.519 150.143 114.596C150.143 78.81 132.25 54.9529 96.4643 37.06L110.54 18.9286C111.255 17.7389 111.643 16.3814 111.664 14.9936C111.686 13.6057 111.34 12.2369 110.661 11.0259C109.983 9.81482 108.997 8.80459 107.803 8.09759C106.608 7.39058 105.248 7.01193 103.86 7H53.2829C51.8949 7.01193 50.5348 7.39058 49.3403 8.09759C48.1459 8.80459 47.1596 9.81482 46.4814 11.0259C45.8032 12.2369 45.4572 13.6057 45.4786 14.9936C45.4999 16.3814 45.8878 17.7389 46.6029 18.9286L60.6786 37.1793C24.8929 55.1914 7 79.0486 7 114.834C7 147.519 36.8214 162.31 78.5714 162.31Z" stroke="white" stroke-width="13" stroke-linecap="round" stroke-linejoin="round"/>
<path d="M66.6429 115.431C68.0984 117.158 69.9303 118.53 71.998 119.44C74.0657 120.349 76.3144 120.773 78.5715 120.679C82.0213 120.915 85.4279 119.803 88.0751 117.578C90.7224 115.354 92.404 112.19 92.7665 108.751C92.404 105.312 90.7224 102.148 88.0751 99.9232C85.4279 97.6986 82.0213 96.587 78.5715 96.8222C75.1217 97.0574 71.715 95.9458 69.0678 93.7213C66.4206 91.4967 64.7389 88.3324 64.3765 84.8936C64.7098 81.4428 66.3833 78.2604 69.0375 76.03C71.6917 73.7996 75.1148 72.6991 78.5715 72.9651C80.7888 72.8294 83.0087 73.187 85.0713 74.012C87.1339 74.8371 88.9879 76.1091 90.5 77.7365" stroke="white" stroke-width="13" stroke-linecap="round" stroke-linejoin="round"/>
</svg>
