<svg xmlns="http://www.w3.org/2000/svg" xmlns:xlink="http://www.w3.org/1999/xlink" width="1080" zoomAndPan="magnify" viewBox="0 0 810 809.999993" height="1080" preserveAspectRatio="xMidYMid meet" version="1.0"><defs><clipPath id="db2a253339"><path d="M 40.5 0 L 769.5 0 L 769.5 810 L 40.5 810 Z M 40.5 0 " clip-rule="nonzero"/></clipPath></defs><g clip-path="url(#db2a253339)"><path fill="#ffffff" d="M 384.75 101.25 C 384.75 90.0625 393.8125 81 405 81 C 416.1875 81 425.25 90.0625 425.25 101.25 C 425.25 112.4375 416.1875 121.5 405 121.5 C 393.8125 121.5 384.75 112.4375 384.75 101.25 Z M 688.5 707.078125 L 688.5 749.25 C 688.5 782.765625 661.265625 810 627.75 810 L 101.25 810 C 67.734375 810 40.5 782.765625 40.5 749.25 L 40.5 101.25 C 40.5 67.734375 67.734375 40.5 101.25 40.5 L 162 40.5 C 162 18.175781 180.175781 0 202.5 0 L 526.5 0 C 548.824219 0 567 18.175781 567 40.5 L 627.75 40.5 C 661.265625 40.5 688.5 67.734375 688.5 101.25 L 688.5 426.921875 C 736.847656 454.96875 769.5 507.210938 769.5 567 C 769.5 626.789062 736.847656 679.03125 688.5 707.078125 Z M 648 723.683594 C 635.039062 727.027344 621.523438 729 607.5 729 C 518.199219 729 445.5 656.300781 445.5 567 C 445.5 477.699219 518.199219 405 607.5 405 C 621.523438 405 635.039062 406.972656 648 410.316406 L 648 101.25 C 648 90.0625 638.9375 81 627.75 81 L 567 81 C 567 103.324219 548.824219 121.5 526.5 121.5 L 465.75 121.5 C 454.5625 121.5 445.5 112.4375 445.5 101.25 C 445.5 90.0625 454.5625 81 465.75 81 L 526.5 81 L 526.5 40.5 L 202.5 40.5 L 202.5 81 L 344.25 81 C 355.4375 81 364.5 90.0625 364.5 101.25 C 364.5 112.4375 355.4375 121.5 344.25 121.5 L 202.5 121.5 C 180.175781 121.5 162 103.324219 162 81 L 101.25 81 C 90.0625 81 81 90.0625 81 101.25 L 81 749.25 C 81 760.4375 90.0625 769.5 101.25 769.5 L 627.75 769.5 C 638.9375 769.5 648 760.4375 648 749.25 Z M 729 567 C 729 500.023438 674.476562 445.5 607.5 445.5 C 540.523438 445.5 486 500.023438 486 567 C 486 633.976562 540.523438 688.5 607.5 688.5 C 674.476562 688.5 729 633.976562 729 567 Z M 653.921875 532.421875 L 597.375 588.972656 L 571.203125 562.796875 C 563.304688 554.902344 550.496094 554.902344 542.546875 562.796875 C 534.652344 570.695312 534.652344 583.503906 542.546875 591.453125 L 583.046875 631.953125 C 586.996094 635.902344 592.160156 637.875 597.375 637.875 C 602.589844 637.875 607.753906 635.902344 611.703125 631.953125 L 682.578125 561.078125 C 690.472656 553.179688 690.472656 540.371094 682.578125 532.421875 C 674.679688 524.527344 661.820312 524.527344 653.921875 532.421875 Z M 243 364.5 L 546.75 364.5 C 557.9375 364.5 567 355.4375 567 344.25 C 567 333.0625 557.9375 324 546.75 324 L 243 324 C 231.8125 324 222.75 333.0625 222.75 344.25 C 222.75 355.4375 231.8125 364.5 243 364.5 Z M 243 283.5 L 546.75 283.5 C 557.9375 283.5 567 274.4375 567 263.25 C 567 252.0625 557.9375 243 546.75 243 L 243 243 C 231.8125 243 222.75 252.0625 222.75 263.25 C 222.75 274.4375 231.8125 283.5 243 283.5 Z M 182.25 243 C 171.0625 243 162 252.0625 162 263.25 C 162 274.4375 171.0625 283.5 182.25 283.5 C 193.4375 283.5 202.5 274.4375 202.5 263.25 C 202.5 252.0625 193.4375 243 182.25 243 Z M 182.25 324 C 171.0625 324 162 333.0625 162 344.25 C 162 355.4375 171.0625 364.5 182.25 364.5 C 193.4375 364.5 202.5 355.4375 202.5 344.25 C 202.5 333.0625 193.4375 324 182.25 324 Z M 425.25 405 L 243 405 C 231.8125 405 222.75 414.0625 222.75 425.25 C 222.75 436.4375 231.8125 445.5 243 445.5 L 425.25 445.5 C 436.4375 445.5 445.5 436.4375 445.5 425.25 C 445.5 414.0625 436.4375 405 425.25 405 Z M 182.25 405 C 171.0625 405 162 414.0625 162 425.25 C 162 436.4375 171.0625 445.5 182.25 445.5 C 193.4375 445.5 202.5 436.4375 202.5 425.25 C 202.5 414.0625 193.4375 405 182.25 405 Z M 182.25 405 " fill-opacity="1" fill-rule="nonzero"/></g></svg>