<svg width="161" height="170" viewBox="0 0 161 170" fill="none" xmlns="http://www.w3.org/2000/svg">
<path d="M146.209 90.1C147.344 90.1 148.397 90.5857 149.289 91.4762L159.663 101.838C161.446 103.538 161.446 106.371 159.663 108.071L151.558 116.167L134.943 99.5714L143.048 91.4762C143.94 90.5857 145.074 90.1 146.209 90.1ZM130.243 104.267L146.857 120.862L97.7428 170H81.0471V153.324L130.243 104.267ZM64.8376 145.714L48.6282 161.905H16.2094C7.29424 161.905 0 154.619 0 145.714V32.381C0 23.4762 7.29424 16.1905 16.2094 16.1905H50.0871C53.4911 6.8 62.4062 0 72.9424 0C83.4785 0 92.3936 6.8 95.7976 16.1905H129.675C138.59 16.1905 145.885 23.4762 145.885 32.381V64.7619L129.675 80.9524V32.381H113.466V48.5714H32.4188V32.381H16.2094V145.714H64.8376ZM72.9424 16.1905C68.4848 16.1905 64.8376 19.8333 64.8376 24.2857C64.8376 28.7381 68.4848 32.381 72.9424 32.381C77.3999 32.381 81.0471 28.7381 81.0471 24.2857C81.0471 19.8333 77.3999 16.1905 72.9424 16.1905Z" fill="white"/>
</svg>
