<svg width="134" height="134" viewBox="0 0 134 134" fill="none" xmlns="http://www.w3.org/2000/svg">
<path d="M92.125 50.25C92.125 56.9136 89.4779 63.3042 84.7661 68.0161C80.0542 72.7279 73.6636 75.375 67 75.375C60.3364 75.375 53.9458 72.7279 49.2339 68.0161C44.5221 63.3042 41.875 56.9136 41.875 50.25C41.875 43.5864 44.5221 37.1958 49.2339 32.4839C53.9458 27.7721 60.3364 25.125 67 25.125C73.6636 25.125 80.0542 27.7721 84.7661 32.4839C89.4779 37.1958 92.125 43.5864 92.125 50.25Z" fill="white"/>
<path fill-rule="evenodd" clip-rule="evenodd" d="M0 67C0 49.2305 7.05891 32.1888 19.6238 19.6238C32.1888 7.05891 49.2305 0 67 0C84.7695 0 101.811 7.05891 114.376 19.6238C126.941 32.1888 134 49.2305 134 67C134 84.7695 126.941 101.811 114.376 114.376C101.811 126.941 84.7695 134 67 134C49.2305 134 32.1888 126.941 19.6238 114.376C7.05891 101.811 0 84.7695 0 67ZM67 8.375C55.9599 8.37559 45.1443 11.4935 35.7981 17.37C26.4519 23.2464 18.955 31.6425 14.1702 41.5919C9.38541 51.5412 7.50724 62.6395 8.75186 73.6092C9.99649 84.5789 14.3133 94.9743 21.2055 103.599C27.1518 94.0177 40.2419 83.75 67 83.75C93.7581 83.75 106.84 94.0094 112.795 103.599C119.687 94.9743 124.004 84.5789 125.248 73.6092C126.493 62.6395 124.615 51.5412 119.83 41.5919C115.045 31.6425 107.548 23.2464 98.2019 17.37C88.8557 11.4935 78.0401 8.37559 67 8.375Z" fill="white"/>
</svg>
